<svg width="28" height="28" viewBox="0 0 28 28" fill="none" xmlns="http://www.w3.org/2000/svg">
<path d="M27 0H1C0.734784 0 0.48043 0.105357 0.292893 0.292893C0.105357 0.48043 0 0.734784 0 1V27C0 27.2652 0.105357 27.5196 0.292893 27.7071C0.48043 27.8946 0.734784 28 1 28H27C27.2652 28 27.5196 27.8946 27.7071 27.7071C27.8946 27.5196 28 27.2652 28 27V1C28 0.734784 27.8946 0.48043 27.7071 0.292893C27.5196 0.105357 27.2652 0 27 0V0ZM26 2V6H2V2H26ZM2 26V8H26V26H2Z" fill="black"/>
<path d="M7 5C7.55228 5 8 4.55228 8 4C8 3.44772 7.55228 3 7 3C6.44772 3 6 3.44772 6 4C6 4.55228 6.44772 5 7 5Z" fill="black"/>
<path d="M10 5C10.5523 5 11 4.55228 11 4C11 3.44772 10.5523 3 10 3C9.44772 3 9 3.44772 9 4C9 4.55228 9.44772 5 10 5Z" fill="black"/>
<path d="M4 5C4.55228 5 5 4.55228 5 4C5 3.44772 4.55228 3 4 3C3.44772 3 3 3.44772 3 4C3 4.55228 3.44772 5 4 5Z" fill="black"/>
<path d="M9.70697 12.293C9.61416 12.2001 9.50395 12.1264 9.38264 12.0761C9.26132 12.0258 9.13129 12 8.99997 12C8.86866 12 8.73862 12.0258 8.61731 12.0761C8.496 12.1264 8.38579 12.2001 8.29297 12.293L4.29297 16.293C4.20008 16.3858 4.12638 16.496 4.0761 16.6173C4.02582 16.7386 3.99994 16.8687 3.99994 17C3.99994 17.1313 4.02582 17.2613 4.0761 17.3827C4.12638 17.504 4.20008 17.6142 4.29297 17.707L8.29297 21.707C8.48158 21.8892 8.73418 21.99 8.99638 21.9877C9.25857 21.9854 9.50938 21.8802 9.69479 21.6948C9.8802 21.5094 9.98537 21.2586 9.98765 20.9964C9.98993 20.7342 9.88913 20.4816 9.70697 20.293L6.41407 17L9.70697 13.707C9.79987 13.6142 9.87357 13.504 9.92385 13.3827C9.97413 13.2613 10 13.1313 10 13C10 12.8687 9.97413 12.7386 9.92385 12.6173C9.87357 12.496 9.79987 12.3858 9.70697 12.293V12.293Z" fill="black"/>
<path d="M19.707 12.293C19.5184 12.1108 19.2658 12.0101 19.0036 12.0123C18.7414 12.0146 18.4906 12.1198 18.3052 12.3052C18.1198 12.4906 18.0146 12.7414 18.0123 13.0036C18.01 13.2658 18.1108 13.5184 18.293 13.707L21.5859 17L18.293 20.293C18.1108 20.4816 18.01 20.7342 18.0123 20.9964C18.0146 21.2586 18.1198 21.5094 18.3052 21.6948C18.4906 21.8802 18.7414 21.9854 19.0036 21.9877C19.2658 21.99 19.5184 21.8892 19.707 21.707L23.707 17.707C23.7999 17.6142 23.8736 17.504 23.9239 17.3827C23.9741 17.2614 24 17.1313 24 17C24 16.8687 23.9741 16.7387 23.9239 16.6173C23.8736 16.496 23.7999 16.3858 23.707 16.293L19.707 12.293Z" fill="black"/>
<path d="M16.3711 11.0713C16.1248 10.9733 15.8497 10.9769 15.606 11.0813C15.3624 11.1857 15.17 11.3825 15.0711 11.6284L11.0711 21.6284C10.9725 21.8747 10.9759 22.1501 11.0803 22.3939C11.1848 22.6378 11.3819 22.8301 11.6282 22.9287C11.8745 23.0273 12.1499 23.0239 12.3937 22.9194C12.6376 22.815 12.8299 22.6179 12.9285 22.3716L16.9285 12.3716C17.0269 12.1252 17.0235 11.8499 16.9189 11.6061C16.8144 11.3623 16.6174 11.1699 16.3711 11.0713V11.0713Z" fill="black"/>
</svg>
