<svg width="350" height="206" viewBox="0 0 350 206" fill="none" xmlns="http://www.w3.org/2000/svg">
<path d="M315.062 0H32.749C30.8626 0 29.3334 1.52921 29.3334 3.41559V187.439C29.3334 189.326 30.8626 190.855 32.749 190.855H315.062C316.948 190.855 318.477 189.326 318.477 187.439V3.41559C318.477 1.52921 316.948 0 315.062 0Z" fill="#3A3A3A"/>
<path fill-rule="evenodd" clip-rule="evenodd" d="M48.137 175.431H299.995V17.6135H48.137V175.431Z" fill="#616467"/>
<path fill-rule="evenodd" clip-rule="evenodd" d="M0.06718 191.559C0.0300704 191.09 0.375819 190.71 0.854453 190.71H349.052C349.524 190.71 349.832 191.086 349.727 191.538C349.727 191.538 347.519 205.329 333.03 205.329H15.0298C0.363104 205.329 0.06718 191.559 0.06718 191.559Z" fill="#2F2E2E"/>
<path d="M194.872 191.042H155.366V193.7H194.872V191.042Z" fill="#212121"/>
<path d="M179.199 8.97067H170.73C170.312 8.97067 169.973 9.30935 169.973 9.72714C169.973 10.1449 170.312 10.4836 170.73 10.4836H179.199C179.617 10.4836 179.956 10.1449 179.956 9.72714C179.956 9.30935 179.617 8.97067 179.199 8.97067Z" fill="#212121"/>
<path d="M206.125 62H144.375C143.745 62 143.141 62.2502 142.696 62.6956C142.25 63.141 142 63.7451 142 64.375V126.125C142 126.755 142.25 127.359 142.696 127.804C143.141 128.25 143.745 128.5 144.375 128.5H206.125C206.755 128.5 207.359 128.25 207.804 127.804C208.25 127.359 208.5 126.755 208.5 126.125V64.375C208.5 63.7451 208.25 63.141 207.804 62.6956C207.359 62.2502 206.755 62 206.125 62V62ZM203.75 66.75V76.25H146.75V66.75H203.75ZM146.75 123.75V81H203.75V123.75H146.75Z" fill="#19E68C"/>
<path d="M158.625 73.875C159.937 73.875 161 72.8117 161 71.5C161 70.1883 159.937 69.125 158.625 69.125C157.313 69.125 156.25 70.1883 156.25 71.5C156.25 72.8117 157.313 73.875 158.625 73.875Z" fill="#19E68C"/>
<path d="M165.75 73.875C167.062 73.875 168.125 72.8117 168.125 71.5C168.125 70.1883 167.062 69.125 165.75 69.125C164.438 69.125 163.375 70.1883 163.375 71.5C163.375 72.8117 164.438 73.875 165.75 73.875Z" fill="#19E68C"/>
<path d="M151.5 73.875C152.812 73.875 153.875 72.8117 153.875 71.5C153.875 70.1883 152.812 69.125 151.5 69.125C150.188 69.125 149.125 70.1883 149.125 71.5C149.125 72.8117 150.188 73.875 151.5 73.875Z" fill="#19E68C"/>
<path d="M176.929 86.4459C176.449 85.9972 175.812 85.7541 175.155 85.7685C174.588 85.7705 174.044 85.9967 173.643 86.3977C173.125 86.8786 164.573 95.4436 164.072 95.9452C163.845 96.1642 163.664 96.4263 163.54 96.7161C163.415 97.0058 163.35 97.3175 163.347 97.6328C163.344 97.9482 163.404 98.2609 163.524 98.5528C163.643 98.8447 163.819 99.1099 164.042 99.3328C164.265 99.5558 164.531 99.7322 164.822 99.8516C165.114 99.971 165.427 100.031 165.742 100.028C166.058 100.026 166.369 99.9601 166.659 99.8357C166.949 99.7112 167.211 99.5302 167.43 99.3034L172.875 93.8585V109.5C172.875 110.13 173.125 110.734 173.571 111.179C174.016 111.625 174.62 111.875 175.25 111.875C175.88 111.875 176.484 111.625 176.929 111.179C177.375 110.734 177.625 110.13 177.625 109.5V93.8585L183.071 99.3041C183.519 99.7367 184.119 99.9761 184.741 99.9707C185.364 99.9653 185.96 99.7155 186.4 99.2752C186.841 98.8348 187.09 98.2392 187.096 97.6164C187.101 96.9937 186.862 96.3938 186.429 95.9459L176.929 86.4459Z" fill="#19E68C"/>
<path d="M184.75 114.25H165.75C165.12 114.25 164.516 114.5 164.071 114.946C163.625 115.391 163.375 115.995 163.375 116.625C163.375 117.255 163.625 117.859 164.071 118.304C164.516 118.75 165.12 119 165.75 119H184.75C185.38 119 185.984 118.75 186.429 118.304C186.875 117.859 187.125 117.255 187.125 116.625C187.125 115.995 186.875 115.391 186.429 114.946C185.984 114.5 185.38 114.25 184.75 114.25Z" fill="#19E68C"/>
</svg>
