<svg width="28" height="28" viewBox="0 0 28 28" fill="none" xmlns="http://www.w3.org/2000/svg">
<path d="M27 0H1C0.734784 0 0.48043 0.105357 0.292893 0.292893C0.105357 0.48043 0 0.734784 0 1V27C0 27.2652 0.105357 27.5196 0.292893 27.7071C0.48043 27.8946 0.734784 28 1 28H27C27.2652 28 27.5196 27.8946 27.7071 27.7071C27.8946 27.5196 28 27.2652 28 27V1C28 0.734784 27.8946 0.48043 27.7071 0.292893C27.5196 0.105357 27.2652 0 27 0V0ZM26 2V6H2V2H26ZM2 26V8H26V26H2Z" fill="black"/>
<path d="M7 5C7.55228 5 8 4.55228 8 4C8 3.44772 7.55228 3 7 3C6.44772 3 6 3.44772 6 4C6 4.55228 6.44772 5 7 5Z" fill="black"/>
<path d="M10 5C10.5523 5 11 4.55228 11 4C11 3.44772 10.5523 3 10 3C9.44772 3 9 3.44772 9 4C9 4.55228 9.44772 5 10 5Z" fill="black"/>
<path d="M4 5C4.55228 5 5 4.55228 5 4C5 3.44772 4.55228 3 4 3C3.44772 3 3 3.44772 3 4C3 4.55228 3.44772 5 4 5Z" fill="black"/>
<path d="M14 9C12.9877 9.00123 12.0173 9.40389 11.3015 10.1197C10.5857 10.8355 10.183 11.8059 10.1818 12.8182V14.4545H8.54545C8.40079 14.4545 8.26205 14.512 8.15976 14.6143C8.05747 14.7166 8 14.8553 8 15V23.7273C8 23.8719 8.05747 24.0107 8.15976 24.113C8.26205 24.2153 8.40079 24.2727 8.54545 24.2727H19.4545C19.5992 24.2727 19.7379 24.2153 19.8402 24.113C19.9425 24.0107 20 23.8719 20 23.7273V15C20 14.8553 19.9425 14.7166 19.8402 14.6143C19.7379 14.512 19.5992 14.4545 19.4545 14.4545H17.8182V12.8182C17.817 11.8059 17.4143 10.8355 16.6985 10.1197C15.9827 9.40389 15.0123 9.00123 14 9V9ZM11.2727 12.8182C11.2727 12.0949 11.5601 11.4012 12.0715 10.8897C12.583 10.3782 13.2767 10.0909 14 10.0909C14.7233 10.0909 15.417 10.3782 15.9285 10.8897C16.4399 11.4012 16.7273 12.0949 16.7273 12.8182V14.4545H11.2727V12.8182ZM18.9091 23.1818H9.09091V15.5455H18.9091V23.1818Z" fill="black"/>
<path d="M14 17.1818C13.6144 17.1809 13.2409 17.3165 12.9457 17.5647C12.6505 17.8128 12.4527 18.1575 12.3874 18.5375C12.322 18.9176 12.3933 19.3085 12.5887 19.641C12.784 19.9735 13.0908 20.2261 13.4546 20.354V21C13.4546 21.1447 13.512 21.2834 13.6143 21.3857C13.7166 21.488 13.8553 21.5455 14 21.5455C14.1447 21.5455 14.2834 21.488 14.3857 21.3857C14.488 21.2834 14.5455 21.1447 14.5455 21V20.354C14.9093 20.2261 15.216 19.9735 15.4113 19.641C15.6067 19.3085 15.678 18.9176 15.6126 18.5375C15.5473 18.1575 15.3495 17.8128 15.0543 17.5647C14.7591 17.3165 14.3856 17.1809 14 17.1818V17.1818ZM14 19.3636C13.8921 19.3636 13.7867 19.3316 13.697 19.2717C13.6073 19.2118 13.5374 19.1266 13.4961 19.0269C13.4548 18.9273 13.444 18.8176 13.465 18.7118C13.4861 18.606 13.538 18.5088 13.6143 18.4325C13.6906 18.3562 13.7878 18.3043 13.8936 18.2832C13.9994 18.2622 14.1091 18.273 14.2087 18.3142C14.3084 18.3555 14.3936 18.4254 14.4535 18.5151C14.5135 18.6048 14.5455 18.7103 14.5455 18.8182C14.5454 18.9628 14.4879 19.1015 14.3856 19.2038C14.2833 19.3061 14.1446 19.3636 14 19.3636V19.3636Z" fill="black"/>
</svg>
