<svg width="28" height="28" viewBox="0 0 28 28" fill="none" xmlns="http://www.w3.org/2000/svg">
<path d="M27 0H1C0.734784 0 0.48043 0.105357 0.292893 0.292893C0.105357 0.48043 0 0.734784 0 1V27C0 27.2652 0.105357 27.5196 0.292893 27.7071C0.48043 27.8946 0.734784 28 1 28H27C27.2652 28 27.5196 27.8946 27.7071 27.7071C27.8946 27.5196 28 27.2652 28 27V1C28 0.734784 27.8946 0.48043 27.7071 0.292893C27.5196 0.105357 27.2652 0 27 0V0ZM26 2V6H2V2H26ZM2 26V8H26V26H2Z" fill="black"/>
<path d="M7 5C7.55228 5 8 4.55228 8 4C8 3.44772 7.55228 3 7 3C6.44772 3 6 3.44772 6 4C6 4.55228 6.44772 5 7 5Z" fill="black"/>
<path d="M10 5C10.5523 5 11 4.55228 11 4C11 3.44772 10.5523 3 10 3C9.44772 3 9 3.44772 9 4C9 4.55228 9.44772 5 10 5Z" fill="black"/>
<path d="M4 5C4.55228 5 5 4.55228 5 4C5 3.44772 4.55228 3 4 3C3.44772 3 3 3.44772 3 4C3 4.55228 3.44772 5 4 5Z" fill="black"/>
<path d="M18.7143 13.3478H15.9906L17.9418 11.3966V10.5959L16.3403 9H15.5395L13.6391 10.906L11.7387 9H10.938L9.33647 10.5959V11.3966L11.2932 13.3478H8.56391L8 13.9117V24.0621L8.56391 24.626H18.7143L19.2782 24.0621V13.9117L18.7143 13.3478ZM18.1504 17.2951H15.3309V14.4756H18.1504V17.2951ZM18.1504 19.5508H15.3309V18.423H18.1504V19.5508ZM15.9399 10.1955L16.7406 10.9962L14.3948 13.3478H14.203V11.9323L15.9399 10.1955ZM11.3384 10.1955L13.0752 11.9323V13.3478H12.8835L10.5376 10.9962L11.3384 10.1955ZM9.12782 18.423H11.9474V19.5508H9.12782V18.423ZM11.9474 14.4756V17.2951H9.12782V14.4756H11.9474ZM9.12782 20.6786H11.9474V23.4982H9.12782V20.6786ZM13.0752 23.4982V14.4756H14.203V23.4982H13.0752ZM15.3309 23.4982V20.6786H18.1504V23.4982H15.3309Z" fill="black"/>
</svg>
